<svg width="100%" height="100%" viewBox="0 0 236 235" fill="none" xmlns="http://www.w3.org/2000/svg">
<path d="M100.9 11L101.7 13.9L87.0001 17.6L89.1001 26L102.8 22.5L103.6 25.4L89.9001 28.9L92.2001 38L107 34.2L107.8 37.1L89.5001 41.8L82.8 15.5L100.9 11Z" fill="#001AFF"/>
<path d="M112.3 10.2L114.2 37.3L110.6 37.5L108.7 10.4L112.3 10.2Z" fill="#001AFF"/>
<path d="M124.8 10.1L136.1 33.8H136.2L139 12L142.4 12.4L138.9 39.3L135 38.8L123.8 15.4H123.7L120.9 37L117.5 36.6L121 9.7L124.8 10.1Z" fill="#001AFF"/>
<path d="M172.8 25.3C176.4 27.5 178.6 30.1 179.4 33.1C180.2 36.1 179.5 39.4 177.2 43.2C176 45.1 174.7 46.7 173.4 48C172 49.2 170.6 50.1 169.1 50.6C167.6 51.1 165.9 51.1 164.2 50.8C162.5 50.5 160.6 49.7 158.7 48.6L150.8 43.7L165 20.6L172.8 25.3ZM160.5 46C160.8 46.2 161.3 46.4 161.8 46.7C162.4 47 163 47.2 163.7 47.3C164.4 47.4 165.2 47.5 166 47.5C166.8 47.5 167.6 47.2 168.5 46.9C169.4 46.5 170.2 45.9 171.2 45.1C172.1 44.3 173 43.1 173.9 41.7C174.7 40.3 175.4 39 175.8 37.7C176.2 36.4 176.3 35.2 176.2 34.1C176.1 33 175.6 31.9 174.9 30.9C174.2 29.9 173.1 29 171.7 28.1L166.5 24.9L155.5 42.9L160.5 46Z" fill="#001AFF"/>
<path d="M191 38.9L172.8 59.1L170.1 56.7L188.3 36.5L191 38.9Z" fill="#001AFF"/>
<path d="M199.8 47.8L190.7 72.4V72.5L208.4 59.4L210.4 62.1L188.6 78.3L186.2 75.1L195.2 50.7V50.6L177.7 63.6L175.7 60.9L197.5 44.7L199.8 47.8Z" fill="#001AFF"/>
<path d="M195.3 95.2C194.2 93.9 193.4 92.5 192.8 91C192.1 89.1 191.9 87.3 192 85.5C192.2 83.7 192.7 82.1 193.5 80.7C194.3 79.2 195.4 77.9 196.8 76.8C198.2 75.7 199.7 74.9 201.3 74.3C203.2 73.6 205 73.3 206.9 73.2C208.8 73.1 210.5 73.4 212.1 73.9C213.7 74.5 215.2 75.4 216.5 76.6C217.8 77.9 218.8 79.5 219.5 81.5C220 82.9 220.3 84.3 220.4 85.6C220.5 86.9 220.4 88.2 220 89.4C219.6 90.6 219.1 91.7 218.2 92.8C217.4 93.8 216.2 94.7 214.8 95.5L213.6 92.1C214.5 91.6 215.3 91 215.8 90.3C216.3 89.6 216.7 88.8 216.9 88C217.1 87.2 217.2 86.3 217.1 85.4C217 84.5 216.8 83.5 216.5 82.6C216 81 215.2 79.8 214.2 78.9C213.2 78 212 77.4 210.8 77C209.6 76.6 208.2 76.5 206.8 76.7C205.4 76.8 204 77.1 202.6 77.6C201.3 78.1 200 78.7 199 79.5C197.9 80.3 197 81.3 196.3 82.3C195.6 83.4 195.2 84.6 195 85.8C194.8 87.1 195 88.4 195.5 89.9C196 91.2 196.6 92.3 197.4 93.2C198.2 94.1 199.1 94.7 200.1 95.2C201.1 95.6 202.2 95.9 203.3 95.9C204.4 95.9 205.6 95.7 206.7 95.2L203.8 87L206.7 86L210.7 97.2L197.2 102L196.4 99.9L199.3 97.9C197.8 97.4 196.4 96.5 195.3 95.2Z" fill="#001AFF"/>
<path d="M224.8 125.6C224.4 129.8 223.1 132.9 220.8 134.9C218.5 137 215.2 137.8 210.8 137.4C208.5 137.2 206.5 136.8 204.8 136.1C203.1 135.4 201.7 134.5 200.6 133.4C199.5 132.2 198.7 130.8 198.2 129.1C197.7 127.4 197.6 125.4 197.8 123.2L198.6 113.9L225.6 116.2L224.8 125.6ZM200.7 123.8C200.7 124.2 200.7 124.7 200.7 125.3C200.7 125.9 200.8 126.6 201 127.3C201.2 128 201.5 128.7 201.9 129.4C202.3 130.1 202.9 130.8 203.6 131.4C204.3 132 205.3 132.5 206.4 133C207.5 133.4 208.9 133.7 210.6 133.9C212.2 134 213.7 134 215 133.8C216.3 133.6 217.4 133.2 218.4 132.5C219.4 131.9 220.1 131 220.7 129.9C221.3 128.8 221.6 127.4 221.8 125.8L222.3 119.7L201.3 117.9L200.7 123.8Z" fill="#001AFF"/>
<path d="M215.1 163.6L212.2 162.6L217.4 148.4L209.3 145.4L204.5 158.6L201.6 157.6L206.4 144.4L197.6 141.2L192.4 155.5L189.5 154.5L196 136.8L221.5 146.1L215.1 163.6Z" fill="#001AFF"/>
<path d="M203.2 182.3C201.7 184.4 200 185.7 198.1 186.1C196.2 186.5 194.4 186.1 192.6 184.8C191.3 183.8 190.3 182.7 189.7 181.4C189.1 180.1 189.1 178.6 189.7 177H189.6C189 177.5 188.4 177.9 187.9 178.1C187.3 178.3 186.7 178.4 186.2 178.3C185.6 178.2 185.1 178.1 184.5 177.9C183.9 177.7 183.3 177.4 182.8 177.1C182.2 176.8 181.7 176.4 181.1 176C180.5 175.6 179.9 175.3 179.4 175C178.8 174.7 178.2 174.4 177.6 174.3C177 174.2 176.4 174 175.8 174.1L178.2 170.8C178.6 170.8 179 170.8 179.4 171C179.8 171.2 180.3 171.5 180.8 171.8C181.3 172.1 181.8 172.5 182.4 172.9C183 173.3 183.6 173.6 184.2 173.9C184.8 174.2 185.4 174.5 185.9 174.7C186.5 174.9 187 175 187.6 175C188.2 175 188.7 174.8 189.2 174.6C189.7 174.3 190.2 173.8 190.8 173.1L196 165.9L186.6 159.1L188.7 156.2L210.7 172.1L203.2 182.3ZM192.8 175.8C192.5 176.5 192.3 177.2 192.2 177.9C192.2 178.6 192.3 179.2 192.6 179.9C192.9 180.5 193.5 181.1 194.3 181.7C195.4 182.5 196.5 182.8 197.7 182.7C198.8 182.6 199.9 181.8 200.9 180.5L206.1 173.2L198.4 167.7L194 173.8C193.5 174.4 193.1 175.1 192.8 175.8Z" fill="#001AFF"/>
<path d="M176.6 207.5L158.2 191.6L161.6 215.7L157.3 218.1L144.3 194.3L147.3 192.7L158.1 212.5H158.2L154.9 188.6L157.6 187.1L175.8 202.9H175.9L165 183L168 181.4L181 205.2L176.6 207.5Z" fill="#001AFF"/>
<path d="M146.3 213C146 214.8 145.5 216.4 144.6 217.9C143.7 219.4 142.6 220.6 141.1 221.7C139.6 222.7 137.8 223.4 135.7 223.8C133.6 224.2 131.7 224.1 129.9 223.6C128.2 223.1 126.7 222.3 125.4 221.2C124.1 220.1 123 218.7 122.2 217.1C121.4 215.5 120.8 213.8 120.5 212C120.2 210.2 120.2 208.4 120.4 206.6C120.7 204.8 121.2 203.2 122.1 201.7C123 200.2 124.1 199 125.6 197.9C127.1 196.9 128.9 196.2 131 195.8C133.1 195.4 135 195.5 136.8 196C138.5 196.5 140 197.3 141.3 198.4C142.6 199.5 143.7 200.9 144.5 202.5C145.3 204.1 145.9 205.8 146.2 207.6C146.5 209.4 146.6 211.3 146.3 213ZM141.5 204.3C140.9 203 140.2 202 139.3 201C138.4 200 137.3 199.4 136 199C134.7 198.6 133.3 198.5 131.6 198.8C130 199.1 128.6 199.6 127.6 200.5C126.5 201.3 125.7 202.3 125.1 203.5C124.5 204.7 124.2 205.9 124.1 207.3C124 208.7 124 210 124.3 211.4C124.5 212.7 124.9 214 125.5 215.3C126.1 216.6 126.8 217.6 127.7 218.6C128.6 219.5 129.7 220.2 131 220.6C132.3 221 133.7 221.1 135.4 220.8C137 220.5 138.4 220 139.4 219.1C140.5 218.3 141.3 217.3 141.9 216.1C142.5 214.9 142.8 213.7 142.9 212.3C143 210.9 143 209.6 142.7 208.2C142.4 206.9 142 205.6 141.5 204.3ZM131.5 230L130.8 226.1L134.2 225.5L134.9 229.4L131.5 230ZM138.5 228.8L137.8 224.9L141.2 224.3L141.9 228.2L138.5 228.8Z" fill="#001AFF"/>
<path d="M101 196.3C102.6 195.9 104.3 195.8 105.8 196.1C107.8 196.4 109.5 197 111 198C112.5 199 113.7 200.2 114.6 201.6C115.5 203 116.1 204.6 116.5 206.3C116.8 208 116.9 209.7 116.6 211.5C116.3 213.5 115.8 215.3 115 217C114.2 218.7 113.2 220.1 111.9 221.3C110.6 222.5 109.2 223.3 107.4 223.9C105.7 224.5 103.8 224.6 101.6 224.3C100.1 224.1 98.8 223.7 97.6 223.2C96.4 222.7 95.3 222 94.4 221.1C93.5 220.2 92.8 219.2 92.3 218C91.8 216.8 91.5 215.4 91.5 213.8L95.1 214.3C95.1 215.4 95.3 216.3 95.7 217.1C96.1 217.9 96.6 218.6 97.2 219.2C97.8 219.8 98.6 220.3 99.4 220.6C100.3 221 101.2 221.2 102.2 221.4C103.8 221.6 105.3 221.5 106.5 221C107.8 220.5 108.8 219.8 109.7 218.9C110.6 217.9 111.3 216.8 111.9 215.5C112.5 214.2 112.8 212.8 113.1 211.4C113.3 210 113.3 208.6 113.1 207.3C112.9 205.9 112.5 204.7 111.8 203.6C111.2 202.5 110.3 201.6 109.3 200.8C108.2 200 107 199.6 105.5 199.3C104.1 199.1 102.8 199.1 101.7 199.4C100.6 199.7 99.6 200.2 98.7 200.9C97.8 201.6 97.1 202.4 96.6 203.4C96.1 204.4 95.7 205.5 95.6 206.8L104.2 208.1L103.8 211.1L92 209.3L94.1 195.2L96.4 195.5L96.8 199C97.9 197.5 99.4 196.7 101 196.3Z" fill="#001AFF"/>
<path d="M76.7999 216.6L86.7999 194.7L73.7 188.7L74.9999 185.9L91.2999 193.4L79.9999 218.1L76.7999 216.6Z" fill="#001AFF"/>
<path d="M55 204.5L70.5 182.2L73.5 184.3L58 206.5L55 204.5Z" fill="#001AFF"/>
<path d="M40.4 186.3C40.7 188 41.5 189.5 42.8 190.8C43.9 191.9 45.1 192.7 46.4 193.1C47.6 193.5 48.9001 193.6 50.1001 193.4C51.4001 193.2 52.6 192.8 53.8 192.1C55 191.4 56.1 190.6 57.1 189.6C58.2 188.5 59.1 187.4 59.8 186.1C60.5 184.9 61.0001 183.6 61.2001 182.4C61.4001 181.1 61.3 179.9 60.9 178.6C60.5 177.3 59.7 176.1 58.6 175C57.8 174.2 56.9 173.5 55.9 173.2C55 172.8 54 172.6 53.1 172.7C52.1 172.7 51.2001 172.9 50.2001 173.3C49.2001 173.7 48.4 174.3 47.5 175L45 172.4C47.7 170.2 50.4 169.2 53.1 169.3C55.9 169.4 58.5 170.6 60.9 173.1C62.4 174.6 63.4 176.1 64 177.8C64.6 179.5 64.8 181 64.6 182.7C64.4 184.3 63.9 185.9 63.1 187.5C62.2 189.1 61.1001 190.6 59.7001 192C58.3001 193.4 56.8001 194.5 55.2001 195.3C53.6001 196.1 51.9 196.6 50.3 196.8C48.6 196.9 47 196.7 45.3 196.1C43.6 195.5 42.1001 194.4 40.6001 193C39.6001 192 38.8001 190.9 38.2001 189.7C37.6001 188.5 37.2 187.3 37 186.1C36.8 184.9 36.9001 183.7 37.2001 182.4C37.5001 181.2 38.1 180 39 178.8L41.5 181.4C40.5 183 40.1 184.7 40.4 186.3Z" fill="#001AFF"/>
<path d="M25.9999 173.5L36.2999 168.1L29.7 155.4L19.3999 160.8L17.7 157.6L41.7 145L43.3999 148.2L32.3999 154L38.9999 166.7L49.9999 160.9L51.7 164.1L27.7 176.7L25.9999 173.5Z" fill="#001AFF"/>
<path d="M13.7 144.2L27 141.6L11 130.7L10.1 126.1L23.1 135.2L36.7 120.4L37.6 124.9L26 137.2L31 140.8L40.3 139L41 142.5L14.4 147.8L13.7 144.2Z" fill="#001AFF"/>
<path d="M11.7 98.2L14.7 98.5L13.4 113.6L22 114.3L23.2 100.3L26.2 100.6L25 114.6L34.4 115.4L35.7 100.2L38.7 100.5L37.1 119.3L10.1 117L11.7 98.2Z" fill="#001AFF"/>
<path d="M15.1 86.3L41.2 93.7L40.2 97.2L14.1 89.8L15.1 86.3Z" fill="#001AFF"/>
<path d="M18.5999 83.3L15.7999 82L24.9999 62.3L27.7999 63.6L23.9999 71.8L45.7999 82L44.2999 85.3L22.4999 75.1L18.5999 83.3Z" fill="#001AFF"/>
</svg>
