<svg width="36" height="36" viewBox="0 0 36 36" fill="none" xmlns="http://www.w3.org/2000/svg">
<path d="M18 3.2445C22.806 3.2445 23.3761 3.2625 25.2751 3.34949C30.1531 3.57151 32.4315 5.886 32.6534 10.728C32.7406 12.6256 32.7569 13.1954 32.7569 18.0014C32.7569 22.8091 32.7389 23.3775 32.6534 25.2751C32.4301 30.1126 30.1576 32.4315 25.2751 32.6534C23.3761 32.7406 22.8091 32.7586 18 32.7586C13.194 32.7586 12.6239 32.7406 10.7266 32.6534C5.8365 32.4301 3.56999 30.105 3.348 25.2734C3.26101 23.3761 3.24301 22.8074 3.24301 18C3.24301 13.194 3.2625 12.6256 3.348 10.7266C3.57151 5.886 5.84401 3.56999 10.7266 3.348C12.6256 3.2625 13.194 3.2445 18 3.2445ZM18 0C13.1116 0 12.4996 0.0210059 10.5795 0.108C4.04249 0.408006 0.4095 4.03501 0.109494 10.5781C0.0210062 12.4996 0 13.1116 0 18C0 22.8884 0.0210059 23.5021 0.108 25.4219C0.408006 31.959 4.03501 35.5919 10.5781 35.892C12.4996 35.9789 13.1116 36 18 36C22.8884 36 23.5021 35.9789 25.4219 35.892C31.9531 35.5919 35.595 31.9649 35.8906 25.4219C35.9789 23.5021 36 22.8884 36 18C36 13.1116 35.9789 12.4996 35.892 10.5795C35.5981 4.04851 31.9666 0.4095 25.4236 0.109494C23.5021 0.0210062 22.8884 0 18 0ZM18 8.757C12.8956 8.757 8.757 12.8956 8.757 18C8.757 23.1044 12.8956 27.2444 18 27.2444C23.1044 27.2444 27.243 23.1061 27.243 18C27.243 12.8956 23.1044 8.757 18 8.757ZM18 23.9999C14.6866 23.9999 12.0001 21.3151 12.0001 18C12.0001 14.6866 14.6866 12.0001 18 12.0001C21.3134 12.0001 23.9999 14.6866 23.9999 18C23.9999 21.3151 21.3134 23.9999 18 23.9999ZM27.6089 6.2325C26.415 6.2325 25.4475 7.2 25.4475 8.3925C25.4475 9.585 26.415 10.5525 27.6089 10.5525C28.8014 10.5525 29.7675 9.585 29.7675 8.3925C29.7675 7.2 28.8014 6.2325 27.6089 6.2325Z" fill="#F2F2F2"/>
</svg>
