<?xml version="1.0" standalone="no"?>
<!DOCTYPE svg PUBLIC "-//W3C//DTD SVG 20010904//EN"
 "http://www.w3.org/TR/2001/REC-SVG-20010904/DTD/svg10.dtd">
<svg version="1.0" xmlns="http://www.w3.org/2000/svg"
 width="500.000000pt" height="500.000000pt" viewBox="0 0 500.000000 500.000000"
 preserveAspectRatio="xMidYMid meet">
<metadata>
Created by potrace 1.14, written by Peter Selinger 2001-2017
</metadata>
<g transform="translate(0.000000,500.000000) scale(0.100000,-0.100000)"
fill="#000000" stroke="none">
<path d="M2449 4403 c0 -21 -2 -49 -4 -63 -1 -14 -6 -61 -9 -105 -4 -44 -12
-129 -17 -188 -6 -60 -9 -111 -6 -113 3 -3 17 -6 32 -7 32 -2 30 -9 40 133 4
58 9 116 10 130 2 14 3 50 4 80 1 47 3 52 15 40 8 -8 32 -49 54 -90 21 -41 65
-124 97 -185 32 -60 62 -115 67 -121 9 -13 67 -24 72 -15 2 3 7 51 11 106 3
55 8 116 10 135 2 19 7 78 11 130 3 52 8 105 9 118 1 12 -1 22 -4 23 -3 0 -18
3 -33 5 -27 4 -28 3 -29 -38 0 -24 -2 -51 -4 -62 -2 -10 -7 -82 -10 -160 -4
-77 -8 -142 -9 -143 -3 -3 -2 -3 -131 237 -48 91 -92 171 -97 178 -6 6 -26 12
-44 12 -32 0 -34 -2 -35 -37z"/>
<path d="M2244 4421 c-20 -6 -20 -8 -7 -106 7 -55 19 -158 28 -230 8 -71 17
-139 19 -150 3 -11 5 -23 5 -27 1 -7 49 -3 57 5 5 4 -34 353 -52 469 -6 39
-17 48 -50 39z"/>
<path d="M1930 4354 c-58 -18 -121 -38 -140 -44 -69 -20 -70 -7 15 -261 43
-129 82 -238 86 -243 7 -8 315 70 332 84 4 4 3 18 -3 32 l-12 25 -115 -38
c-167 -55 -153 -58 -185 36 -14 44 -23 83 -20 86 4 4 59 24 123 45 l117 38
-10 28 c-6 15 -11 28 -11 28 -1 0 -56 -18 -122 -39 -118 -39 -135 -41 -135
-17 0 7 -11 40 -24 74 -29 74 -34 68 99 105 135 37 155 47 144 75 -11 28 -13
28 -139 -14z"/>
<path d="M3199 4223 c-23 -43 -52 -96 -64 -118 -26 -49 -90 -165 -121 -222
l-23 -42 44 -25 c157 -87 245 -105 327 -66 57 27 103 76 134 145 69 152 19
261 -164 358 l-90 47 -43 -77z m164 -49 c65 -38 81 -54 98 -94 27 -65 -2 -165
-69 -233 -40 -41 -88 -59 -141 -52 -39 5 -161 60 -161 72 0 9 18 43 69 133 17
30 50 90 73 133 23 42 48 77 56 77 7 0 41 -16 75 -36z"/>
<path d="M3683 3996 c-11 -13 -49 -59 -84 -102 -35 -44 -67 -81 -70 -84 -16
-14 -149 -182 -149 -189 0 -4 11 -14 25 -21 22 -12 26 -11 44 11 11 13 84 103
164 199 134 162 144 176 129 193 -20 23 -34 22 -59 -7z"/>
<path d="M3770 3769 c-74 -61 -168 -136 -207 -168 l-73 -59 21 -26 20 -25 117
95 c64 53 127 104 139 114 12 10 33 26 47 36 l27 17 -12 -29 c-37 -99 -149
-414 -149 -421 1 -4 9 -18 20 -31 l19 -23 206 161 c113 90 205 168 205 175 0
6 -8 19 -17 27 -17 15 -25 10 -109 -56 -50 -39 -108 -84 -129 -101 -21 -16
-54 -43 -74 -60 -19 -16 -32 -23 -29 -15 3 8 40 113 83 233 l78 219 -24 23
-24 23 -135 -109z"/>
<path d="M757 3443 c-3 -5 -30 -69 -62 -143 -31 -74 -67 -156 -80 -181 -17
-34 -20 -50 -12 -58 26 -26 45 -11 77 64 18 41 37 75 41 75 5 0 48 -16 96 -36
190 -79 327 -134 333 -134 4 0 12 11 18 25 11 25 10 27 -36 46 -36 16 -311
129 -379 156 -13 5 -10 15 32 106 14 33 25 60 23 62 -15 12 -48 24 -51 18z"/>
<path d="M4013 3361 c-108 -37 -174 -100 -193 -186 -13 -58 -7 -103 22 -160
24 -46 46 -68 89 -85 l30 -13 -30 -18 c-25 -15 -29 -23 -23 -39 4 -12 10 -22
12 -23 3 -1 62 20 131 46 l127 49 -36 87 c-30 73 -39 87 -55 83 -29 -7 -31
-26 -8 -86 l20 -54 -22 -6 c-36 -9 -97 -7 -119 5 -53 28 -99 116 -91 173 15
110 166 201 286 174 111 -25 174 -157 119 -250 -9 -15 -20 -28 -25 -28 -13 0
11 -37 29 -44 19 -7 50 24 70 71 30 71 7 186 -52 253 -60 68 -174 89 -281 51z"/>
<path d="M585 2986 c-17 -53 -51 -39 271 -116 116 -27 218 -50 227 -50 12 0
17 9 17 29 l0 29 -212 51 c-117 28 -223 53 -236 56 -13 2 -32 7 -43 10 -12 4
-21 1 -24 -9z"/>
<path d="M529 2733 c-1 -15 -2 -48 -4 -73 -3 -58 -7 -222 -6 -235 1 -6 68 -11
179 -13 97 -2 216 -5 265 -6 48 -2 87 -2 88 -2 0 1 3 79 5 174 l5 172 -30 -2
-31 -2 -1 -91 c-1 -49 -1 -111 -1 -137 l0 -48 -93 0 -94 0 2 128 2 127 -27 3
c-25 3 -28 0 -29 -25 -1 -15 -2 -66 -4 -113 -2 -47 -3 -92 -4 -102 -1 -14 -11
-16 -68 -13 -38 2 -77 4 -89 4 -18 1 -20 6 -18 44 2 23 4 85 6 137 l3 95 -27
3 c-25 3 -28 0 -29 -25z"/>
<path d="M3946 2651 c-3 -5 -4 -64 -3 -132 3 -127 8 -144 52 -199 83 -103 302
-112 403 -17 49 45 72 111 78 215 3 53 7 103 9 110 3 7 -6 12 -23 13 -39 1
-205 7 -369 13 -78 3 -144 2 -147 -3z m393 -70 l83 -1 -6 -75 c-10 -138 -58
-194 -174 -202 -110 -8 -183 22 -219 90 -15 30 -28 171 -17 189 3 5 60 7 127
4 67 -2 160 -5 206 -5z"/>
<path d="M1024 2345 c-11 -13 -68 -74 -127 -134 l-106 -110 -43 23 c-71 38
-141 77 -175 98 -32 19 -33 19 -32 1 3 -47 16 -64 74 -96 178 -95 245 -133
245 -138 0 -3 -56 -18 -125 -34 -124 -28 -125 -28 -118 -54 3 -14 7 -29 10
-33 2 -3 34 2 71 13 37 11 76 21 87 23 11 2 58 14 105 26 47 12 92 23 100 25
140 29 166 45 141 83 -9 15 -39 12 -126 -11 -48 -13 -52 -13 -107 15 -32 15
-58 31 -58 33 0 3 12 18 28 34 184 187 205 215 184 249 -6 9 -13 6 -28 -13z"/>
<path d="M3924 2238 c-5 -8 -104 -296 -104 -304 0 -1 13 -6 28 -12 l28 -10 38
127 c21 69 41 129 45 133 10 11 171 -44 171 -59 0 -10 -51 -178 -67 -219 -2
-7 9 -16 26 -22 l30 -10 37 119 c33 106 40 119 58 116 20 -4 139 -38 143 -41
1 -1 -15 -60 -37 -131 -22 -71 -36 -132 -32 -136 4 -4 16 -10 28 -13 18 -6 24
7 68 146 27 84 49 157 50 162 1 9 -54 28 -329 110 -66 20 -132 41 -147 46 -18
6 -30 5 -34 -2z"/>
<path d="M970 1839 c-102 -60 -199 -116 -216 -124 -48 -22 -56 -36 -35 -64
l18 -24 97 58 c53 32 98 56 100 54 2 -2 34 -51 70 -109 75 -120 80 -104 -44
-172 -41 -22 -77 -42 -79 -44 -7 -6 18 -54 28 -54 5 0 65 32 133 71 67 40 167
97 221 127 53 31 97 61 97 67 0 6 -6 19 -13 28 -11 16 -21 12 -114 -43 -56
-33 -104 -60 -107 -60 -6 0 -136 208 -136 217 0 5 38 29 84 56 122 70 120 68
105 100 -7 15 -15 27 -18 26 -3 0 -89 -50 -191 -110z"/>
<path d="M3786 1871 c-9 -10 -16 -22 -16 -27 0 -6 43 -36 95 -69 52 -32 95
-60 95 -62 0 -2 -12 -21 -26 -42 l-25 -39 -82 4 c-45 3 -105 6 -134 8 -47 2
-54 0 -73 -26 -15 -21 -17 -29 -8 -33 10 -3 111 -9 241 -14 13 -1 17 -10 17
-42 0 -57 21 -93 69 -119 64 -34 123 -30 175 11 27 21 126 160 126 177 0 5
-66 51 -147 103 -82 51 -180 114 -220 140 -67 44 -73 46 -87 30z m309 -244
c33 -22 62 -41 63 -43 6 -4 -59 -97 -77 -111 -66 -53 -164 9 -141 88 13 43 69
120 83 112 7 -3 39 -24 72 -46z"/>
<path d="M1345 1533 c-11 -2 -32 -9 -47 -15 -27 -10 -27 -11 -11 -38 14 -25
19 -27 45 -18 42 15 113 4 153 -23 118 -82 92 -238 -57 -337 -58 -38 -139 -38
-195 1 -57 40 -87 97 -81 158 5 45 3 49 -23 58 -24 8 -28 6 -33 -12 -21 -77 3
-157 64 -218 133 -133 345 -77 436 116 30 64 31 134 3 192 -43 89 -162 153
-254 136z"/>
<path d="M3470 1442 l-23 -18 110 -165 c137 -205 130 -194 107 -180 -11 6 -88
59 -173 117 -146 100 -156 104 -183 93 -23 -9 -27 -16 -23 -38 6 -36 33 -189
40 -226 20 -108 24 -139 21 -143 -3 -2 -53 70 -112 159 -59 90 -110 168 -114
172 -9 11 -50 -9 -50 -24 0 -8 255 -404 276 -428 1 -1 21 7 43 19 30 18 38 28
35 44 -2 11 -18 98 -34 191 -17 94 -32 178 -34 187 -4 17 29 -4 265 -169 42
-29 83 -53 90 -53 8 0 27 11 43 24 l29 23 -142 216 c-79 120 -145 217 -146
217 -2 0 -13 -8 -25 -18z"/>
<path d="M1613 1098 c-70 -117 -129 -218 -131 -224 -2 -9 47 -39 53 -32 11 12
266 441 263 443 -7 5 -47 25 -52 25 -3 0 -62 -96 -133 -212z"/>
<path d="M1831 1223 c-12 -27 -17 -25 132 -77 42 -16 77 -31 77 -35 0 -10
-139 -374 -150 -393 -15 -26 -13 -34 15 -46 17 -8 26 -8 31 0 21 34 182 474
176 480 -5 5 -67 28 -139 52 l-131 44 -11 -25z"/>
<path d="M2840 1160 c-138 -26 -213 -164 -173 -318 26 -101 69 -158 143 -191
119 -54 263 -3 322 113 32 61 30 164 -4 237 -58 126 -161 183 -288 159z m160
-91 c42 -32 81 -111 87 -179 5 -47 1 -67 -16 -104 -32 -65 -78 -91 -162 -91
-57 0 -70 4 -103 29 -75 57 -113 204 -73 281 50 96 180 127 267 64z"/>
<path d="M2149 1083 c-1 -63 -9 -166 -14 -195 -5 -32 2 -35 105 -41 80 -5 90
-2 90 29 0 17 -6 24 -20 25 -11 1 -24 3 -30 4 -5 1 -28 3 -50 4 -39 1 -40 2
-34 29 25 105 133 152 239 103 74 -34 105 -92 101 -188 -7 -133 -86 -215 -199
-207 -51 4 -112 40 -133 80 -21 38 -22 38 -59 24 -25 -10 -25 -10 -9 -42 50
-101 174 -150 291 -118 70 20 136 89 158 163 52 182 -30 342 -186 362 -50 6
-126 -14 -159 -42 l-30 -25 0 36 c0 33 -2 36 -30 36 -28 0 -30 -3 -31 -37z"/>
<path d="M3037 593 c-14 -4 -16 -11 -11 -41 8 -47 7 -45 43 -37 28 6 30 10 24
33 -3 15 -6 32 -6 39 0 13 -16 15 -50 6z"/>
<path d="M2898 563 c-9 -2 -15 -10 -13 -16 2 -7 6 -24 9 -39 6 -28 26 -35 59
-22 12 4 13 13 5 45 -10 39 -18 43 -60 32z"/>
</g>
</svg>
